# xmcd
#
# Track frame offsets: 
#        150
#        9167
#        28217
#        41670
#        51272
#        65845
#        78487
#        95972
#        105520
#        118697
#        135335
#        148112
#
# Disc length: 2150 seconds
#
# Revision: 2
# Processed by: cddbd v1.5.2PL0 Copyright (c) Steve Scherf et al.
# Submitted via: ExactAudioCopy v1.0b2
#
DISCID=a808640c
DTITLE=Ray Charles - Hit The Road Jack
DYEAR=1900
DGENRE=
TTITLE0=Hit The Road Jack
TTITLE1=I Can't Stop Loving You
TTITLE2=Crying Time
TTITLE3=Yes Indeed
TTITLE4=Born To Lose
TTITLE5=Yesterday
TTITLE6=Ruby
TTITLE7=Busted
TTITLE8=Take These Chains From My Heart
TTITLE9=Georgia On My Mind
TTITLE10=Unchain My Heart
TTITLE11=Let's Go Get Stoned
EXTD=Lilo
EXTT0=
EXTT1=
EXTT2=
EXTT3=
EXTT4=
EXTT5=
EXTT6=
EXTT7=
EXTT8=
EXTT9=
EXTT10=
EXTT11=
PLAYORDER=
